<svg width="18" height="16" viewBox="0 0 18 16" fill="none" xmlns="http://www.w3.org/2000/svg">
<path fill-rule="evenodd" clip-rule="evenodd" d="M1 1.5L17 8L1 15V10L5.85189 8.97855C6.91054 8.75568 6.91054 7.24432 5.85189 7.02145L1 6V1.5Z" fill="#959494"/>
<path d="M17 8L17.3006 8.68712C17.5769 8.56624 17.7539 8.29161 17.7499 7.99005C17.7459 7.68849 17.5617 7.41866 17.2823 7.30515L17 8ZM1 1.5L1.28228 0.80515C1.05105 0.711213 0.788245 0.738455 0.581199 0.877822C0.374154 1.01719 0.25 1.25042 0.25 1.5H1ZM1 15H0.25C0.25 15.2531 0.377662 15.4891 0.589488 15.6277C0.801315 15.7662 1.06873 15.7886 1.30061 15.6871L1 15ZM1 10L0.845492 9.26609C0.498434 9.33915 0.25 9.64533 0.25 10H1ZM5.85189 8.97855L6.0064 9.71246H6.0064L5.85189 8.97855ZM5.85189 7.02145L5.69738 7.75536H5.69738L5.85189 7.02145ZM1 6H0.25C0.25 6.35467 0.498434 6.66085 0.845492 6.73391L1 6ZM17.2823 7.30515L1.28228 0.80515L0.717717 2.19485L16.7177 8.69485L17.2823 7.30515ZM1.30061 15.6871L17.3006 8.68712L16.6994 7.31288L0.699386 14.3129L1.30061 15.6871ZM0.25 10V15H1.75V10H0.25ZM1.15451 10.7339L6.0064 9.71246L5.69738 8.24464L0.845492 9.26609L1.15451 10.7339ZM6.0064 9.71246C7.85904 9.32243 7.85903 6.67757 6.00639 6.28754L5.69738 7.75536C5.78528 7.77387 5.82491 7.80996 5.84729 7.83981C5.87494 7.87669 5.89588 7.93271 5.89588 8C5.89588 8.06729 5.87494 8.12331 5.84729 8.16019C5.82491 8.19004 5.78528 8.22613 5.69738 8.24464L6.0064 9.71246ZM6.00639 6.28754L1.15451 5.26609L0.845492 6.73391L5.69738 7.75536L6.00639 6.28754ZM0.25 1.5V6H1.75V1.5H0.25Z" fill="#959494"/>
</svg>
